<mxfile host="app.diagrams.net" modified="2023-10-16T01:55:47.268Z" agent="Mozilla/5.0 (Windows NT 10.0; Win64; x64; rv:109.0) Gecko/20100101 Firefox/118.0" etag="v4aamIKMKC3cVSHfurMU" version="22.0.4" type="github">
  <diagram id="C5RBs43oDa-KdzZeNtuy" name="Page-1">
    <mxGraphModel dx="1707" dy="470" grid="1" gridSize="10" guides="1" tooltips="1" connect="1" arrows="1" fold="1" page="1" pageScale="1" pageWidth="827" pageHeight="1169" math="0" shadow="0">
      <root>
        <mxCell id="WIyWlLk6GJQsqaUBKTNV-0" />
        <mxCell id="WIyWlLk6GJQsqaUBKTNV-1" parent="WIyWlLk6GJQsqaUBKTNV-0" />
        <mxCell id="54tyVv2bRcx-7wUgAFXk-0" value="start" style="strokeWidth=2;html=1;shape=mxgraph.flowchart.terminator;whiteSpace=wrap;" vertex="1" parent="WIyWlLk6GJQsqaUBKTNV-1">
          <mxGeometry x="280" y="40" width="90" height="50" as="geometry" />
        </mxCell>
        <mxCell id="54tyVv2bRcx-7wUgAFXk-2" value="" style="endArrow=classic;html=1;rounded=0;exitX=0.367;exitY=1.02;exitDx=0;exitDy=0;exitPerimeter=0;" edge="1" parent="WIyWlLk6GJQsqaUBKTNV-1">
          <mxGeometry width="50" height="50" relative="1" as="geometry">
            <mxPoint x="321.52" y="91" as="sourcePoint" />
            <mxPoint x="322" y="140" as="targetPoint" />
          </mxGeometry>
        </mxCell>
        <mxCell id="54tyVv2bRcx-7wUgAFXk-4" value="Interger bilangan" style="shape=internalStorage;whiteSpace=wrap;html=1;dx=15;dy=15;rounded=1;arcSize=8;strokeWidth=2;" vertex="1" parent="WIyWlLk6GJQsqaUBKTNV-1">
          <mxGeometry x="235" y="140" width="170" height="50" as="geometry" />
        </mxCell>
        <mxCell id="54tyVv2bRcx-7wUgAFXk-11" value="Input bilangan" style="shape=parallelogram;html=1;strokeWidth=2;perimeter=parallelogramPerimeter;whiteSpace=wrap;rounded=1;arcSize=12;size=0.23;" vertex="1" parent="WIyWlLk6GJQsqaUBKTNV-1">
          <mxGeometry x="210" y="240" width="230" height="40" as="geometry" />
        </mxCell>
        <mxCell id="54tyVv2bRcx-7wUgAFXk-13" style="edgeStyle=orthogonalEdgeStyle;rounded=0;orthogonalLoop=1;jettySize=auto;html=1;exitX=0.5;exitY=1;exitDx=0;exitDy=0;" edge="1" parent="WIyWlLk6GJQsqaUBKTNV-1" source="54tyVv2bRcx-7wUgAFXk-11" target="54tyVv2bRcx-7wUgAFXk-11">
          <mxGeometry relative="1" as="geometry" />
        </mxCell>
        <mxCell id="54tyVv2bRcx-7wUgAFXk-27" value="" style="endArrow=classic;html=1;rounded=0;" edge="1" parent="WIyWlLk6GJQsqaUBKTNV-1">
          <mxGeometry width="50" height="50" relative="1" as="geometry">
            <mxPoint x="320" y="280" as="sourcePoint" />
            <mxPoint x="320" y="340" as="targetPoint" />
          </mxGeometry>
        </mxCell>
        <mxCell id="54tyVv2bRcx-7wUgAFXk-28" value="" style="endArrow=classic;html=1;rounded=0;" edge="1" parent="WIyWlLk6GJQsqaUBKTNV-1">
          <mxGeometry width="50" height="50" relative="1" as="geometry">
            <mxPoint x="317" y="190" as="sourcePoint" />
            <mxPoint x="316.5" y="240" as="targetPoint" />
          </mxGeometry>
        </mxCell>
        <mxCell id="54tyVv2bRcx-7wUgAFXk-32" value="bilangan med 2 =0" style="strokeWidth=2;html=1;shape=mxgraph.flowchart.decision;whiteSpace=wrap;" vertex="1" parent="WIyWlLk6GJQsqaUBKTNV-1">
          <mxGeometry x="210" y="340" width="220" height="100" as="geometry" />
        </mxCell>
        <mxCell id="54tyVv2bRcx-7wUgAFXk-33" value="" style="endArrow=classic;html=1;rounded=0;exitX=1;exitY=0.5;exitDx=0;exitDy=0;exitPerimeter=0;" edge="1" parent="WIyWlLk6GJQsqaUBKTNV-1" source="54tyVv2bRcx-7wUgAFXk-32">
          <mxGeometry width="50" height="50" relative="1" as="geometry">
            <mxPoint x="530" y="420" as="sourcePoint" />
            <mxPoint x="520" y="440" as="targetPoint" />
            <Array as="points">
              <mxPoint x="520" y="390" />
            </Array>
          </mxGeometry>
        </mxCell>
        <mxCell id="54tyVv2bRcx-7wUgAFXk-34" value="" style="endArrow=classic;html=1;rounded=0;exitX=0;exitY=0.5;exitDx=0;exitDy=0;exitPerimeter=0;" edge="1" parent="WIyWlLk6GJQsqaUBKTNV-1" source="54tyVv2bRcx-7wUgAFXk-32">
          <mxGeometry width="50" height="50" relative="1" as="geometry">
            <mxPoint x="30" y="330" as="sourcePoint" />
            <mxPoint x="120" y="440" as="targetPoint" />
            <Array as="points">
              <mxPoint x="120" y="390" />
            </Array>
          </mxGeometry>
        </mxCell>
        <mxCell id="54tyVv2bRcx-7wUgAFXk-35" value="output bilangan &amp;amp; bilangan genap" style="shape=parallelogram;html=1;strokeWidth=2;perimeter=parallelogramPerimeter;whiteSpace=wrap;rounded=1;arcSize=12;size=0.23;" vertex="1" parent="WIyWlLk6GJQsqaUBKTNV-1">
          <mxGeometry x="390" y="440" width="270" height="40" as="geometry" />
        </mxCell>
        <mxCell id="54tyVv2bRcx-7wUgAFXk-36" value="output bilangan &amp;amp; bilangan ganjil" style="shape=parallelogram;html=1;strokeWidth=2;perimeter=parallelogramPerimeter;whiteSpace=wrap;rounded=1;arcSize=12;size=0.23;" vertex="1" parent="WIyWlLk6GJQsqaUBKTNV-1">
          <mxGeometry x="-10" y="440" width="260" height="40" as="geometry" />
        </mxCell>
        <mxCell id="54tyVv2bRcx-7wUgAFXk-37" value="" style="endArrow=classic;html=1;rounded=0;exitX=0.5;exitY=1;exitDx=0;exitDy=0;" edge="1" parent="WIyWlLk6GJQsqaUBKTNV-1">
          <mxGeometry width="50" height="50" relative="1" as="geometry">
            <mxPoint x="120" y="480" as="sourcePoint" />
            <mxPoint x="310" y="600" as="targetPoint" />
            <Array as="points">
              <mxPoint x="120" y="600" />
            </Array>
          </mxGeometry>
        </mxCell>
        <mxCell id="54tyVv2bRcx-7wUgAFXk-38" value="" style="endArrow=classic;html=1;rounded=0;exitX=0.481;exitY=1;exitDx=0;exitDy=0;exitPerimeter=0;entryX=1;entryY=0.5;entryDx=0;entryDy=0;entryPerimeter=0;" edge="1" parent="WIyWlLk6GJQsqaUBKTNV-1" source="54tyVv2bRcx-7wUgAFXk-35" target="54tyVv2bRcx-7wUgAFXk-40">
          <mxGeometry width="50" height="50" relative="1" as="geometry">
            <mxPoint x="520" y="490" as="sourcePoint" />
            <mxPoint x="340" y="601" as="targetPoint" />
            <Array as="points">
              <mxPoint x="520" y="601" />
            </Array>
          </mxGeometry>
        </mxCell>
        <mxCell id="54tyVv2bRcx-7wUgAFXk-40" value="" style="verticalLabelPosition=bottom;verticalAlign=top;html=1;shape=mxgraph.flowchart.on-page_reference;" vertex="1" parent="WIyWlLk6GJQsqaUBKTNV-1">
          <mxGeometry x="310" y="590" width="20" height="20" as="geometry" />
        </mxCell>
        <mxCell id="54tyVv2bRcx-7wUgAFXk-43" value="" style="endArrow=classic;html=1;rounded=0;exitX=0.5;exitY=1;exitDx=0;exitDy=0;exitPerimeter=0;" edge="1" parent="WIyWlLk6GJQsqaUBKTNV-1" source="54tyVv2bRcx-7wUgAFXk-40">
          <mxGeometry width="50" height="50" relative="1" as="geometry">
            <mxPoint x="390" y="510" as="sourcePoint" />
            <mxPoint x="320" y="640" as="targetPoint" />
          </mxGeometry>
        </mxCell>
        <mxCell id="54tyVv2bRcx-7wUgAFXk-44" value="end" style="strokeWidth=2;html=1;shape=mxgraph.flowchart.terminator;whiteSpace=wrap;" vertex="1" parent="WIyWlLk6GJQsqaUBKTNV-1">
          <mxGeometry x="295" y="640" width="50" height="20" as="geometry" />
        </mxCell>
      </root>
    </mxGraphModel>
  </diagram>
</mxfile>
